<?xml version="1.0" standalone="no"?>
<!DOCTYPE svg PUBLIC "-//W3C//DTD SVG 20010904//EN"
 "http://www.w3.org/TR/2001/REC-SVG-20010904/DTD/svg10.dtd">
<svg version="1.0" xmlns="http://www.w3.org/2000/svg"
 width="18px" height="18px" viewBox="0 0 260.000000 260.000000"
 preserveAspectRatio="xMidYMid meet">

<g transform="translate(0.000000,260.000000) scale(0.100000,-0.100000)"
fill="#000000" stroke="none">
<path d="M1155 2374 c-228 -36 -431 -135 -594 -289 -400 -378 -453 -989 -123
-1430 229 -308 607 -470 990 -426 127 15 195 32 295 76 374 161 615 493 658
905 12 120 2 218 -37 369 -97 372 -395 669 -772 768 -77 20 -126 26 -242 28
-80 2 -158 1 -175 -1z m727 -501 c10 -9 18 -30 18 -48 0 -26 -110 -563 -206
-1003 -17 -80 -40 -112 -78 -112 -15 0 -87 46 -194 125 -94 69 -174 125 -178
125 -4 0 -49 -40 -100 -90 -92 -90 -127 -109 -151 -77 -5 6 -33 84 -61 172
-28 88 -57 178 -64 199 l-13 39 -169 53 c-93 29 -175 59 -184 68 -13 13 -13
17 1 40 12 18 58 40 174 86 303 117 440 171 783 304 190 73 358 134 374 135
16 0 38 -6 48 -16z"/>
<path d="M1270 1456 c-195 -124 -356 -229 -358 -234 -3 -11 97 -323 108 -335
4 -5 11 42 15 103 6 94 11 115 29 135 11 13 148 138 304 279 156 140 283 258
283 263 0 4 -6 9 -13 10 -7 2 -173 -98 -368 -221z"/>
</g>
</svg>
